<svg id="Capa_1" enable-background="new 0 0 510.023 510.023" height="512" viewBox="0 0 510.023 510.023" width="512" xmlns="http://www.w3.org/2000/svg"><g><g><circle cx="10" cy="288.842" r="10"/><path d="m510.023 162.253c0-24.874-12.368-48.264-32.636-62.384-1.196-31.949-27.561-57.568-59.796-57.568-6.886 0-13.729 1.195-20.174 3.497-11.258-14.134-28.5-22.621-46.837-22.621-10.818 0-21.186 2.837-30.35 8.258-14.62-8.144-31.062-12.42-47.946-12.42-37.672 0-71.816 21.543-88.333 54.673-10.103-4.888-21.177-7.433-32.578-7.433-41.38 0-75.046 33.666-75.046 75.046 0 22.519 9.984 42.738 25.742 56.506-2.101 2.804-3.937 5.794-5.478 8.937-4.434-.725-8.916-1.09-13.404-1.09-26.627 0-51.847 12.899-67.462 34.504-3.235 4.476-2.229 10.728 2.247 13.962 1.771 1.28 3.819 1.896 5.85 1.896 3.101 0 6.158-1.438 8.113-4.143 11.867-16.418 31.027-26.22 51.253-26.22 5.696 0 11.386.776 16.911 2.308 5.26 1.458 10.71-1.568 12.259-6.797 1.326-4.477 3.527-8.631 6.436-12.265 9.859 4.771 20.912 7.449 32.579 7.449 2.284 0 4.581-.107 6.875-.319 13.79 23.238 38.474 38.419 65.502 40.15l-42.888 59.384c-2.199 3.044-2.506 7.064-.797 10.408 1.71 3.343 5.148 5.447 8.904 5.447h30.002l-32.371 65.148c-.931.031-1.862.062-2.79.062-29.807 0-57.353-16.195-71.889-42.265-2.259-4.052-7.01-6.019-11.47-4.749-5.643 1.605-11.451 2.419-17.263 2.419-20.227 0-39.387-9.802-51.253-26.22-3.234-4.476-9.486-5.483-13.962-2.247-4.476 3.235-5.482 9.486-2.247 13.962 15.616 21.605 40.835 34.504 67.462 34.504 5.101 0 10.196-.474 15.222-1.415 17.545 26.603 46.567 43.558 78.345 45.758l-24.147 48.597c-3.878 7.806-1.757 16.963 5.16 22.268 3.284 2.519 7.127 3.769 10.957 3.769 4.236 0 8.456-1.528 11.887-4.559l116.456-102.843c10.937 6.02 23.173 9.185 35.784 9.185 20.948 0 40.503-8.609 54.57-23.827 4.919.861 9.914 1.295 14.917 1.295 47.527 0 86.193-38.666 86.193-86.193 0-19.982-6.947-39.186-19.4-54.459 24.275-12.695 40.891-38.113 40.891-67.355zm-281.1 74.094c-23.846 0-45.875-13.93-56.121-35.487-1.957-4.118-6.449-6.391-10.928-5.526-3.481.672-7.015 1.013-10.501 1.013-30.353 0-55.046-24.693-55.046-55.046s24.693-55.046 55.046-55.046c11.367 0 22.286 3.449 31.579 9.974 2.558 1.798 5.808 2.294 8.787 1.343 2.978-.95 5.34-3.238 6.385-6.185 11.107-31.325 40.91-52.372 74.16-52.372 15.252 0 30.046 4.372 42.782 12.644 3.534 2.295 8.127 2.129 11.486-.416 6.964-5.277 15.273-8.066 24.028-8.066 14.247 0 27.503 7.7 34.596 20.096 2.699 4.718 8.673 6.415 13.449 3.822 5.78-3.136 12.338-4.794 18.966-4.794 21.967 0 39.839 17.872 39.839 39.838 0 .742-.029 1.544-.09 2.526-.236 3.769 1.67 7.349 4.929 9.256 17.12 10.021 27.755 28.541 27.755 48.332 0 30.863-25.109 55.973-55.973 55.973-6.73 0-13.32-1.188-19.588-3.531-3.406-1.273-7.236-.596-10 1.767-11.195 9.573-24.702 15.921-39.053 18.531l26.487-35.344c2.271-3.031 2.635-7.084.941-10.471s-5.156-5.526-8.943-5.526h-102.653c-3.211 0-6.227 1.542-8.107 4.145l-34.519 47.796c-3.193.5-6.441.754-9.693.754zm-53.808 228.274 68.946-138.755c1.54-3.1 1.368-6.775-.456-9.718-1.823-2.942-5.039-4.732-8.5-4.732h-26.58l77.83-107.765h77.548l-63.613 84.889c-2.271 3.031-2.635 7.084-.941 10.471s5.156 5.526 8.943 5.526h48.098zm293.416-180.553c0 36.499-29.694 66.193-66.193 66.193-5.472 0-10.931-.676-16.226-2.01-3.84-.968-7.892.424-10.328 3.548-10.404 13.342-26.053 20.994-42.933 20.994-6.721 0-13.296-1.23-19.464-3.598l76.053-67.162c3.117-2.752 4.205-7.146 2.734-11.034s-5.195-6.461-9.353-6.461h-54.539l21.137-28.198c.387.004-.385 0 0 0 22.599 0 45.71-7.441 63.585-21.077 6.823 1.968 13.878 2.963 21.046 2.963 4.999 0 9.881-.499 14.613-1.425 12.668 12.42 19.868 29.442 19.868 47.267z"/></g></g></svg>